<?xml version="1.0" encoding="UTF-8" standalone="no"?>
<!DOCTYPE svg PUBLIC "-//W3C//DTD SVG 1.1//EN"
 "http://www.w3.org/Graphics/SVG/1.1/DTD/svg11.dtd">
<!-- Generated by graphviz version 2.40.1 (20161225.0304)
 -->
<!-- Title: gocallvis Pages: 1 -->
<svg width="346pt" height="340pt"
 viewBox="0.00 0.00 346.05 339.80" xmlns="http://www.w3.org/2000/svg" xmlns:xlink="http://www.w3.org/1999/xlink">
<g id="graph0" class="graph" transform="scale(1 1) rotate(0) translate(0 339.8)">
<title>gocallvis</title>
<polygon fill="#d3d3d3" stroke="transparent" points="0,0 0,-339.8 346.0548,-339.8 346.0548,0 0,0"/>
<text text-anchor="middle" x="102.1346" y="-8.2" font-family="Arial" font-size="14.00" fill="#000000">k8s.io/kubernetes/cmd/kubectl</text>
<g id="clust1" class="cluster">
<title>cluster_focus</title>
<polygon fill="#e6ecfa" stroke="#000000" stroke-width=".5" points="8,-32.8 8,-331.8 338.0548,-331.8 338.0548,-32.8 8,-32.8"/>
<text text-anchor="middle" x="173.0274" y="-311.6" font-family="Arial" font-size="18.00" fill="#000000">main</text>
</g>
<g id="clust4" class="cluster">
<title>cluster_k8s.io/kubectl/pkg/cmd/util</title>
<g id="a_clust4"><a xlink:href="/?f=k8s.io/kubectl/pkg/cmd/util" xlink:title="package: k8s.io/kubectl/pkg/cmd/util">
<polygon fill="#ffffe0" stroke="#000000" stroke-width=".8" points="193.7076,-214.8 193.7076,-293.8 271.3472,-293.8 271.3472,-214.8 193.7076,-214.8"/>
<text text-anchor="middle" x="232.5274" y="-275.4" font-family="Tahoma bold" font-size="16.00" fill="#000000">util</text>
</a>
</g>
</g>
<g id="clust3" class="cluster">
<title>cluster_k8s.io/kubectl/pkg/cmd</title>
<g id="a_clust3"><a xlink:href="/?f=k8s.io/kubectl/pkg/cmd" xlink:title="package: k8s.io/kubectl/pkg/cmd">
<polygon fill="#ffffe0" stroke="#000000" stroke-width=".8" points="135,-127.8 135,-206.8 330.0548,-206.8 330.0548,-127.8 135,-127.8"/>
<text text-anchor="middle" x="232.5274" y="-188.4" font-family="Tahoma bold" font-size="16.00" fill="#000000">cmd</text>
</a>
</g>
</g>
<g id="clust2" class="cluster">
<title>cluster_k8s.io/component&#45;base/cli</title>
<g id="a_clust2"><a xlink:href="/?f=k8s.io/component-base/cli" xlink:title="package: k8s.io/component&#45;base/cli">
<polygon fill="#ffffe0" stroke="#000000" stroke-width=".8" points="171.925,-40.8 171.925,-119.8 293.1298,-119.8 293.1298,-40.8 171.925,-40.8"/>
<text text-anchor="middle" x="232.5274" y="-101.4" font-family="Tahoma bold" font-size="16.00" fill="#000000">cli</text>
</a>
</g>
</g>
<!-- k8s.io/kubernetes/cmd/kubectl.main -->
<g id="node1" class="node">
<title>k8s.io/kubernetes/cmd/kubectl.main</title>
<g id="a_node1"><a xlink:title="k8s.io/kubernetes/cmd/kubectl.main | defined in kubectl.go:28&#10;at kubectl.go:29: calling [k8s.io/kubectl/pkg/cmd.NewDefaultKubectlCommand]&#10;at kubectl.go:30: calling [k8s.io/component&#45;base/cli.RunNoErrOutput]&#10;at kubectl.go:32: calling [k8s.io/kubectl/pkg/cmd/util.CheckErr]">
<path fill="#add8e6" stroke="#000000" stroke-width=".5" d="M58,-171.8C58,-171.8 28,-171.8 28,-171.8 22,-171.8 16,-165.8 16,-159.8 16,-159.8 16,-147.8 16,-147.8 16,-141.8 22,-135.8 28,-135.8 28,-135.8 58,-135.8 58,-135.8 64,-135.8 70,-141.8 70,-147.8 70,-147.8 70,-159.8 70,-159.8 70,-165.8 64,-171.8 58,-171.8"/>
<text text-anchor="middle" x="43" y="-149.6" font-family="Verdana" font-size="14.00" fill="#000000">main</text>
</a>
</g>
</g>
<!-- k8s.io/component&#45;base/cli.RunNoErrOutput -->
<g id="node2" class="node">
<title>k8s.io/component&#45;base/cli.RunNoErrOutput</title>
<g id="a_node2"><a xlink:title="k8s.io/component&#45;base/cli.RunNoErrOutput | defined in run.go:83">
<path fill="#ffe4b5" stroke="#000000" stroke-width="1.5" d="M273.2324,-84.8C273.2324,-84.8 191.8224,-84.8 191.8224,-84.8 185.8224,-84.8 179.8224,-78.8 179.8224,-72.8 179.8224,-72.8 179.8224,-60.8 179.8224,-60.8 179.8224,-54.8 185.8224,-48.8 191.8224,-48.8 191.8224,-48.8 273.2324,-48.8 273.2324,-48.8 279.2324,-48.8 285.2324,-54.8 285.2324,-60.8 285.2324,-60.8 285.2324,-72.8 285.2324,-72.8 285.2324,-78.8 279.2324,-84.8 273.2324,-84.8"/>
<text text-anchor="middle" x="232.5274" y="-62.6" font-family="Verdana" font-size="14.00" fill="#000000">RunNoErrOutput</text>
</a>
</g>
</g>
<!-- k8s.io/kubernetes/cmd/kubectl.main&#45;&gt;k8s.io/component&#45;base/cli.RunNoErrOutput -->
<g id="edge2" class="edge">
<title>k8s.io/kubernetes/cmd/kubectl.main&#45;&gt;k8s.io/component&#45;base/cli.RunNoErrOutput</title>
<g id="a_edge2"><a xlink:title="at kubectl.go:30: calling [k8s.io/component&#45;base/cli.RunNoErrOutput]">
<path fill="none" stroke="#8b4513" d="M70.1547,-141.335C99.7518,-127.7489 147.7085,-105.735 183.8468,-89.1462"/>
<polygon fill="#8b4513" stroke="#8b4513" points="185.6022,-92.1916 193.2302,-84.8388 182.6818,-85.8298 185.6022,-92.1916"/>
</a>
</g>
</g>
<!-- k8s.io/kubectl/pkg/cmd.NewDefaultKubectlCommand -->
<g id="node3" class="node">
<title>k8s.io/kubectl/pkg/cmd.NewDefaultKubectlCommand</title>
<g id="a_node3"><a xlink:title="k8s.io/kubectl/pkg/cmd.NewDefaultKubectlCommand | defined in cmd.go:95">
<path fill="#ffe4b5" stroke="#000000" stroke-width="1.5" d="M310.0822,-171.8C310.0822,-171.8 154.9726,-171.8 154.9726,-171.8 148.9726,-171.8 142.9726,-165.8 142.9726,-159.8 142.9726,-159.8 142.9726,-147.8 142.9726,-147.8 142.9726,-141.8 148.9726,-135.8 154.9726,-135.8 154.9726,-135.8 310.0822,-135.8 310.0822,-135.8 316.0822,-135.8 322.0822,-141.8 322.0822,-147.8 322.0822,-147.8 322.0822,-159.8 322.0822,-159.8 322.0822,-165.8 316.0822,-171.8 310.0822,-171.8"/>
<text text-anchor="middle" x="232.5274" y="-149.6" font-family="Verdana" font-size="14.00" fill="#000000">NewDefaultKubectlCommand</text>
</a>
</g>
</g>
<!-- k8s.io/kubernetes/cmd/kubectl.main&#45;&gt;k8s.io/kubectl/pkg/cmd.NewDefaultKubectlCommand -->
<g id="edge1" class="edge">
<title>k8s.io/kubernetes/cmd/kubectl.main&#45;&gt;k8s.io/kubectl/pkg/cmd.NewDefaultKubectlCommand</title>
<g id="a_edge1"><a xlink:title="at kubectl.go:29: calling [k8s.io/kubectl/pkg/cmd.NewDefaultKubectlCommand]">
<path fill="none" stroke="#8b4513" d="M70.1547,-153.8C86.917,-153.8 109.5681,-153.8 132.6261,-153.8"/>
<polygon fill="#8b4513" stroke="#8b4513" points="132.8716,-157.3001 142.8716,-153.8 132.8716,-150.3001 132.8716,-157.3001"/>
</a>
</g>
</g>
<!-- k8s.io/kubectl/pkg/cmd/util.CheckErr -->
<g id="node4" class="node">
<title>k8s.io/kubectl/pkg/cmd/util.CheckErr</title>
<g id="a_node4"><a xlink:title="k8s.io/kubectl/pkg/cmd/util.CheckErr | defined in helpers.go:118">
<path fill="#ffe4b5" stroke="#000000" stroke-width="1.5" d="M251.168,-258.8C251.168,-258.8 213.8868,-258.8 213.8868,-258.8 207.8868,-258.8 201.8868,-252.8 201.8868,-246.8 201.8868,-246.8 201.8868,-234.8 201.8868,-234.8 201.8868,-228.8 207.8868,-222.8 213.8868,-222.8 213.8868,-222.8 251.168,-222.8 251.168,-222.8 257.168,-222.8 263.168,-228.8 263.168,-234.8 263.168,-234.8 263.168,-246.8 263.168,-246.8 263.168,-252.8 257.168,-258.8 251.168,-258.8"/>
<text text-anchor="middle" x="232.5274" y="-236.6" font-family="Verdana" font-size="14.00" fill="#000000">CheckErr</text>
</a>
</g>
</g>
<!-- k8s.io/kubernetes/cmd/kubectl.main&#45;&gt;k8s.io/kubectl/pkg/cmd/util.CheckErr -->
<g id="edge3" class="edge">
<title>k8s.io/kubernetes/cmd/kubectl.main&#45;&gt;k8s.io/kubectl/pkg/cmd/util.CheckErr</title>
<g id="a_edge3"><a xlink:title="at kubectl.go:32: calling [k8s.io/kubectl/pkg/cmd/util.CheckErr]">
<path fill="none" stroke="#8b4513" d="M66.8795,-171.8716C84.8307,-184.7546 110.4521,-201.6928 135,-212.8 153.0618,-220.9725 174.091,-227.3707 191.988,-231.9753"/>
<polygon fill="#8b4513" stroke="#8b4513" points="191.2948,-235.4092 201.8428,-234.4137 192.9762,-228.6142 191.2948,-235.4092"/>
</a>
</g>
</g>
</g>
</svg>
